<mxfile host="app.diagrams.net" agent="Mozilla/5.0 (Macintosh; Intel Mac OS X 10_15_7) AppleWebKit/537.36 (KHTML, like Gecko) Chrome/132.0.0.0 Safari/537.36" version="26.0.10">
  <diagram name="Page-1" id="b8q0Q2Qu1mNs1k-4M_kO">
    <mxGraphModel dx="960" dy="933" grid="1" gridSize="10" guides="1" tooltips="1" connect="1" arrows="1" fold="1" page="1" pageScale="1" pageWidth="850" pageHeight="1100" math="0" shadow="0">
      <root>
        <mxCell id="0" />
        <mxCell id="1" parent="0" />
        <mxCell id="p1mo3sN1p-dWeBABTkZB-15" style="edgeStyle=orthogonalEdgeStyle;rounded=0;orthogonalLoop=1;jettySize=auto;html=1;entryX=0.5;entryY=0;entryDx=0;entryDy=0;" edge="1" parent="1" source="p1mo3sN1p-dWeBABTkZB-11" target="p1mo3sN1p-dWeBABTkZB-12">
          <mxGeometry relative="1" as="geometry" />
        </mxCell>
        <mxCell id="p1mo3sN1p-dWeBABTkZB-11" value="&lt;font style=&quot;font-size: 24px;&quot; face=&quot;Times New Roman&quot;&gt;Start&lt;/font&gt;" style="strokeWidth=1;html=1;shape=mxgraph.flowchart.start_2;whiteSpace=wrap;fillColor=#f8cecc;strokeColor=#b85450;" vertex="1" parent="1">
          <mxGeometry x="310" width="100" height="100" as="geometry" />
        </mxCell>
        <mxCell id="p1mo3sN1p-dWeBABTkZB-14" value="" style="group" vertex="1" connectable="0" parent="1">
          <mxGeometry y="140" width="200" height="100" as="geometry" />
        </mxCell>
        <mxCell id="p1mo3sN1p-dWeBABTkZB-12" value="" style="verticalLabelPosition=bottom;verticalAlign=top;html=1;shape=hexagon;perimeter=hexagonPerimeter2;arcSize=6;size=0.2;fillColor=#dae8fc;strokeColor=#6c8ebf;" vertex="1" parent="p1mo3sN1p-dWeBABTkZB-14">
          <mxGeometry width="200" height="100" as="geometry" />
        </mxCell>
        <mxCell id="p1mo3sN1p-dWeBABTkZB-13" value="&lt;font style=&quot;font-size: 24px;&quot; face=&quot;Times New Roman&quot;&gt;Generate Data&lt;/font&gt;" style="text;html=1;align=center;verticalAlign=middle;resizable=0;points=[];autosize=1;" vertex="1" parent="p1mo3sN1p-dWeBABTkZB-14">
          <mxGeometry x="20" y="30" width="160" height="40" as="geometry" />
        </mxCell>
        <mxCell id="p1mo3sN1p-dWeBABTkZB-18" style="edgeStyle=orthogonalEdgeStyle;rounded=0;orthogonalLoop=1;jettySize=auto;html=1;entryX=0;entryY=0.5;entryDx=0;entryDy=0;" edge="1" parent="1" source="p1mo3sN1p-dWeBABTkZB-16" target="p1mo3sN1p-dWeBABTkZB-10">
          <mxGeometry relative="1" as="geometry" />
        </mxCell>
        <mxCell id="p1mo3sN1p-dWeBABTkZB-16" value="&lt;font style=&quot;font-size: 24px;&quot; face=&quot;Times New Roman&quot;&gt;Process&lt;/font&gt;" style="rounded=1;whiteSpace=wrap;html=1;absoluteArcSize=1;arcSize=14;strokeWidth=1;fillColor=#dae8fc;strokeColor=#6c8ebf;" vertex="1" parent="1">
          <mxGeometry x="280" y="140" width="160" height="100" as="geometry" />
        </mxCell>
        <mxCell id="p1mo3sN1p-dWeBABTkZB-17" style="edgeStyle=orthogonalEdgeStyle;rounded=0;orthogonalLoop=1;jettySize=auto;html=1;entryX=0;entryY=0.5;entryDx=0;entryDy=0;" edge="1" parent="1" source="p1mo3sN1p-dWeBABTkZB-12" target="p1mo3sN1p-dWeBABTkZB-16">
          <mxGeometry relative="1" as="geometry" />
        </mxCell>
        <mxCell id="p1mo3sN1p-dWeBABTkZB-20" value="" style="group" vertex="1" connectable="0" parent="1">
          <mxGeometry x="520" y="140" width="240" height="100" as="geometry" />
        </mxCell>
        <mxCell id="p1mo3sN1p-dWeBABTkZB-10" value="" style="verticalLabelPosition=bottom;verticalAlign=top;html=1;shape=process;whiteSpace=wrap;rounded=1;size=0.08333333333333333;arcSize=6;fillColor=#d5e8d4;strokeColor=#82b366;" vertex="1" parent="p1mo3sN1p-dWeBABTkZB-20">
          <mxGeometry width="240" height="100" as="geometry" />
        </mxCell>
        <mxCell id="p1mo3sN1p-dWeBABTkZB-19" value="&lt;font style=&quot;font-size: 24px;&quot; face=&quot;Times New Roman&quot;&gt;Gather Metrics&lt;/font&gt;" style="text;html=1;align=center;verticalAlign=middle;resizable=0;points=[];autosize=1;" vertex="1" parent="p1mo3sN1p-dWeBABTkZB-20">
          <mxGeometry x="35" y="30" width="170" height="40" as="geometry" />
        </mxCell>
        <mxCell id="p1mo3sN1p-dWeBABTkZB-23" value="" style="group" vertex="1" connectable="0" parent="1">
          <mxGeometry x="279" y="280" width="180" height="120" as="geometry" />
        </mxCell>
        <mxCell id="p1mo3sN1p-dWeBABTkZB-52" style="edgeStyle=orthogonalEdgeStyle;rounded=0;orthogonalLoop=1;jettySize=auto;html=1;exitX=0.5;exitY=0.88;exitDx=0;exitDy=0;exitPerimeter=0;" edge="1" parent="p1mo3sN1p-dWeBABTkZB-23" source="p1mo3sN1p-dWeBABTkZB-21">
          <mxGeometry relative="1" as="geometry">
            <mxPoint x="321" y="240" as="targetPoint" />
            <Array as="points">
              <mxPoint x="90" y="180" />
              <mxPoint x="322" y="180" />
              <mxPoint x="322" y="240" />
            </Array>
          </mxGeometry>
        </mxCell>
        <mxCell id="p1mo3sN1p-dWeBABTkZB-21" value="" style="strokeWidth=1;html=1;shape=mxgraph.flowchart.multi-document;whiteSpace=wrap;fillColor=#dae8fc;strokeColor=#6c8ebf;" vertex="1" parent="p1mo3sN1p-dWeBABTkZB-23">
          <mxGeometry width="180" height="120" as="geometry" />
        </mxCell>
        <mxCell id="p1mo3sN1p-dWeBABTkZB-22" value="&lt;font style=&quot;font-size: 24px;&quot; face=&quot;Times New Roman&quot;&gt;Execute&lt;/font&gt;&lt;div&gt;&lt;font style=&quot;font-size: 24px;&quot; face=&quot;Times New Roman&quot;&gt;Combinations&lt;/font&gt;&lt;/div&gt;" style="text;html=1;align=center;verticalAlign=middle;resizable=0;points=[];autosize=1;" vertex="1" parent="p1mo3sN1p-dWeBABTkZB-23">
          <mxGeometry y="25" width="160" height="70" as="geometry" />
        </mxCell>
        <mxCell id="p1mo3sN1p-dWeBABTkZB-24" style="edgeStyle=orthogonalEdgeStyle;rounded=0;orthogonalLoop=1;jettySize=auto;html=1;entryX=0.453;entryY=0.008;entryDx=0;entryDy=0;entryPerimeter=0;" edge="1" parent="1" source="p1mo3sN1p-dWeBABTkZB-16" target="p1mo3sN1p-dWeBABTkZB-21">
          <mxGeometry relative="1" as="geometry" />
        </mxCell>
        <mxCell id="p1mo3sN1p-dWeBABTkZB-26" style="edgeStyle=orthogonalEdgeStyle;rounded=0;orthogonalLoop=1;jettySize=auto;html=1;exitX=0.5;exitY=1;exitDx=0;exitDy=0;entryX=0.5;entryY=0;entryDx=0;entryDy=0;" edge="1" parent="1" source="p1mo3sN1p-dWeBABTkZB-12" target="p1mo3sN1p-dWeBABTkZB-25">
          <mxGeometry relative="1" as="geometry" />
        </mxCell>
        <mxCell id="p1mo3sN1p-dWeBABTkZB-31" value="" style="group" vertex="1" connectable="0" parent="1">
          <mxGeometry x="10" y="300" width="200" height="120" as="geometry" />
        </mxCell>
        <mxCell id="p1mo3sN1p-dWeBABTkZB-30" value="" style="group" vertex="1" connectable="0" parent="p1mo3sN1p-dWeBABTkZB-31">
          <mxGeometry width="200" height="120" as="geometry" />
        </mxCell>
        <mxCell id="p1mo3sN1p-dWeBABTkZB-29" value="" style="shape=parallelogram;html=1;strokeWidth=1;perimeter=parallelogramPerimeter;whiteSpace=wrap;rounded=1;arcSize=12;size=0.23;fillColor=#dae8fc;strokeColor=#6c8ebf;" vertex="1" parent="p1mo3sN1p-dWeBABTkZB-30">
          <mxGeometry x="20" y="20" width="180" height="100" as="geometry" />
        </mxCell>
        <mxCell id="p1mo3sN1p-dWeBABTkZB-28" value="" style="shape=parallelogram;html=1;strokeWidth=1;perimeter=parallelogramPerimeter;whiteSpace=wrap;rounded=1;arcSize=12;size=0.23;fillColor=#dae8fc;strokeColor=#6c8ebf;" vertex="1" parent="p1mo3sN1p-dWeBABTkZB-30">
          <mxGeometry x="10" y="10" width="180" height="100" as="geometry" />
        </mxCell>
        <mxCell id="p1mo3sN1p-dWeBABTkZB-25" value="&lt;span style=&quot;color: rgba(0, 0, 0, 0); font-family: monospace; font-size: 0px; text-align: start; text-wrap-mode: nowrap;&quot;&gt;%3CmxGraphModel%3E%3Croot%3E%3CmxCell%20id%3D%220%22%2F%3E%3CmxCell%20id%3D%221%22%20parent%3D%220%22%2F%3E%3CmxCell%20id%3D%222%22%20value%3D%22%22%20style%3D%22shape%3Dparallelogram%3Bhtml%3D1%3BstrokeWidth%3D1%3Bperimeter%3DparallelogramPerimeter%3BwhiteSpace%3Dwrap%3Brounded%3D1%3BarcSize%3D12%3Bsize%3D0.23%3BfillColor%3D%23dae8fc%3BstrokeColor%3D%236c8ebf%3B%22%20vertex%3D%221%22%20parent%3D%221%22%3E%3CmxGeometry%20x%3D%2220%22%20y%3D%22310%22%20width%3D%22180%22%20height%3D%22100%22%20as%3D%22geometry%22%2F%3E%3C%2FmxCell%3E%3C%2Froot%3E%3C%2FmxGraphModel%3E&lt;/span&gt;" style="shape=parallelogram;html=1;strokeWidth=1;perimeter=parallelogramPerimeter;whiteSpace=wrap;rounded=1;arcSize=12;size=0.23;fillColor=#dae8fc;strokeColor=#6c8ebf;" vertex="1" parent="p1mo3sN1p-dWeBABTkZB-30">
          <mxGeometry width="180" height="100" as="geometry" />
        </mxCell>
        <mxCell id="p1mo3sN1p-dWeBABTkZB-27" value="&lt;font style=&quot;font-size: 24px;&quot; face=&quot;Times New Roman&quot;&gt;Data&lt;/font&gt;" style="text;html=1;align=center;verticalAlign=middle;resizable=0;points=[];autosize=1;" vertex="1" parent="p1mo3sN1p-dWeBABTkZB-31">
          <mxGeometry x="55" y="30" width="70" height="40" as="geometry" />
        </mxCell>
        <mxCell id="p1mo3sN1p-dWeBABTkZB-34" value="" style="group" vertex="1" connectable="0" parent="1">
          <mxGeometry x="30" y="520" width="220" height="100" as="geometry" />
        </mxCell>
        <mxCell id="p1mo3sN1p-dWeBABTkZB-32" value="&lt;span style=&quot;color: rgba(0, 0, 0, 0); font-family: monospace; font-size: 0px; text-align: start; text-wrap-mode: nowrap;&quot;&gt;%3CmxGraphModel%3E%3Croot%3E%3CmxCell%20id%3D%220%22%2F%3E%3CmxCell%20id%3D%221%22%20parent%3D%220%22%2F%3E%3CmxCell%20id%3D%222%22%20value%3D%22%22%20style%3D%22shape%3Dparallelogram%3Bhtml%3D1%3BstrokeWidth%3D1%3Bperimeter%3DparallelogramPerimeter%3BwhiteSpace%3Dwrap%3Brounded%3D1%3BarcSize%3D12%3Bsize%3D0.23%3BfillColor%3D%23dae8fc%3BstrokeColor%3D%236c8ebf%3B%22%20vertex%3D%221%22%20parent%3D%221%22%3E%3CmxGeometry%20x%3D%2220%22%20y%3D%22310%22%20width%3D%22180%22%20height%3D%22100%22%20as%3D%22geometry%22%2F%3E%3C%2FmxCell%3E%3C%2Froot%3E%3C%2FmxGraphModel%3E&lt;/span&gt;" style="shape=parallelogram;html=1;strokeWidth=1;perimeter=parallelogramPerimeter;whiteSpace=wrap;rounded=1;arcSize=12;size=0.23;fillColor=#dae8fc;strokeColor=#6c8ebf;" vertex="1" parent="p1mo3sN1p-dWeBABTkZB-34">
          <mxGeometry width="180" height="100" as="geometry" />
        </mxCell>
        <mxCell id="p1mo3sN1p-dWeBABTkZB-33" value="&lt;font style=&quot;font-size: 24px;&quot; face=&quot;Times New Roman&quot;&gt;Selected&lt;/font&gt;&lt;div&gt;&lt;font style=&quot;font-size: 24px;&quot; face=&quot;Times New Roman&quot;&gt;Data&lt;/font&gt;&lt;/div&gt;" style="text;html=1;align=center;verticalAlign=middle;resizable=0;points=[];autosize=1;" vertex="1" parent="p1mo3sN1p-dWeBABTkZB-34">
          <mxGeometry x="40" y="15" width="100" height="70" as="geometry" />
        </mxCell>
        <mxCell id="p1mo3sN1p-dWeBABTkZB-40" value="" style="group" vertex="1" connectable="0" parent="1">
          <mxGeometry x="270" y="510" width="180" height="100" as="geometry" />
        </mxCell>
        <mxCell id="p1mo3sN1p-dWeBABTkZB-38" value="" style="html=1;strokeWidth=1;shape=manualInput;whiteSpace=wrap;rounded=1;size=26;arcSize=11;fillColor=#dae8fc;strokeColor=#6c8ebf;" vertex="1" parent="p1mo3sN1p-dWeBABTkZB-40">
          <mxGeometry width="180" height="100" as="geometry" />
        </mxCell>
        <mxCell id="p1mo3sN1p-dWeBABTkZB-39" value="&lt;font face=&quot;Times New Roman&quot;&gt;&lt;span style=&quot;font-size: 24px;&quot;&gt;Profiler&lt;/span&gt;&lt;/font&gt;" style="text;html=1;align=center;verticalAlign=middle;resizable=0;points=[];autosize=1;" vertex="1" parent="p1mo3sN1p-dWeBABTkZB-40">
          <mxGeometry x="40" y="40" width="100" height="40" as="geometry" />
        </mxCell>
        <mxCell id="p1mo3sN1p-dWeBABTkZB-42" value="" style="group" vertex="1" connectable="0" parent="1">
          <mxGeometry x="510" y="510" width="180" height="100" as="geometry" />
        </mxCell>
        <mxCell id="p1mo3sN1p-dWeBABTkZB-43" value="" style="html=1;strokeWidth=1;shape=manualInput;whiteSpace=wrap;rounded=1;size=26;arcSize=11;fillColor=#dae8fc;strokeColor=#6c8ebf;" vertex="1" parent="p1mo3sN1p-dWeBABTkZB-42">
          <mxGeometry width="180" height="100" as="geometry" />
        </mxCell>
        <mxCell id="p1mo3sN1p-dWeBABTkZB-44" value="&lt;font face=&quot;Times New Roman&quot;&gt;&lt;span style=&quot;font-size: 24px;&quot;&gt;Algorithm&lt;/span&gt;&lt;/font&gt;" style="text;html=1;align=center;verticalAlign=middle;resizable=0;points=[];autosize=1;" vertex="1" parent="p1mo3sN1p-dWeBABTkZB-42">
          <mxGeometry x="30" y="40" width="120" height="40" as="geometry" />
        </mxCell>
        <mxCell id="p1mo3sN1p-dWeBABTkZB-45" style="edgeStyle=orthogonalEdgeStyle;rounded=0;orthogonalLoop=1;jettySize=auto;html=1;entryX=0.553;entryY=0.12;entryDx=0;entryDy=0;entryPerimeter=0;" edge="1" parent="1" source="p1mo3sN1p-dWeBABTkZB-21" target="p1mo3sN1p-dWeBABTkZB-38">
          <mxGeometry relative="1" as="geometry" />
        </mxCell>
        <mxCell id="p1mo3sN1p-dWeBABTkZB-49" style="edgeStyle=orthogonalEdgeStyle;rounded=0;orthogonalLoop=1;jettySize=auto;html=1;entryX=0.908;entryY=0.4;entryDx=0;entryDy=0;entryPerimeter=0;" edge="1" parent="1" source="p1mo3sN1p-dWeBABTkZB-21" target="p1mo3sN1p-dWeBABTkZB-25">
          <mxGeometry relative="1" as="geometry" />
        </mxCell>
        <mxCell id="p1mo3sN1p-dWeBABTkZB-50" style="edgeStyle=orthogonalEdgeStyle;rounded=0;orthogonalLoop=1;jettySize=auto;html=1;exitX=0.5;exitY=0.88;exitDx=0;exitDy=0;exitPerimeter=0;entryX=0.5;entryY=0;entryDx=0;entryDy=0;" edge="1" parent="1" source="p1mo3sN1p-dWeBABTkZB-21" target="p1mo3sN1p-dWeBABTkZB-32">
          <mxGeometry relative="1" as="geometry">
            <Array as="points">
              <mxPoint x="369" y="460" />
              <mxPoint x="120" y="460" />
            </Array>
          </mxGeometry>
        </mxCell>
        <mxCell id="p1mo3sN1p-dWeBABTkZB-63" style="edgeStyle=orthogonalEdgeStyle;rounded=0;orthogonalLoop=1;jettySize=auto;html=1;entryX=0;entryY=0.5;entryDx=0;entryDy=0;" edge="1" parent="1" source="p1mo3sN1p-dWeBABTkZB-55" target="p1mo3sN1p-dWeBABTkZB-59">
          <mxGeometry relative="1" as="geometry" />
        </mxCell>
        <mxCell id="p1mo3sN1p-dWeBABTkZB-55" value="&lt;font style=&quot;font-size: 24px;&quot; face=&quot;Times New Roman&quot;&gt;Load data&lt;/font&gt;" style="rounded=1;whiteSpace=wrap;html=1;absoluteArcSize=1;arcSize=14;strokeWidth=1;fillColor=#dae8fc;strokeColor=#6c8ebf;" vertex="1" parent="1">
          <mxGeometry x="40" y="680" width="160" height="100" as="geometry" />
        </mxCell>
        <mxCell id="p1mo3sN1p-dWeBABTkZB-58" style="edgeStyle=orthogonalEdgeStyle;rounded=0;orthogonalLoop=1;jettySize=auto;html=1;entryX=0.5;entryY=0;entryDx=0;entryDy=0;" edge="1" parent="1" source="p1mo3sN1p-dWeBABTkZB-32" target="p1mo3sN1p-dWeBABTkZB-55">
          <mxGeometry relative="1" as="geometry" />
        </mxCell>
        <mxCell id="p1mo3sN1p-dWeBABTkZB-59" value="&lt;font style=&quot;font-size: 24px;&quot; face=&quot;Times New Roman&quot;&gt;Execute&lt;/font&gt;" style="rounded=1;whiteSpace=wrap;html=1;absoluteArcSize=1;arcSize=14;strokeWidth=1;fillColor=#dae8fc;strokeColor=#6c8ebf;" vertex="1" parent="1">
          <mxGeometry x="280" y="680" width="160" height="100" as="geometry" />
        </mxCell>
        <mxCell id="p1mo3sN1p-dWeBABTkZB-64" style="edgeStyle=orthogonalEdgeStyle;rounded=0;orthogonalLoop=1;jettySize=auto;html=1;entryX=0.5;entryY=0;entryDx=0;entryDy=0;" edge="1" parent="1" source="p1mo3sN1p-dWeBABTkZB-38" target="p1mo3sN1p-dWeBABTkZB-59">
          <mxGeometry relative="1" as="geometry" />
        </mxCell>
        <mxCell id="p1mo3sN1p-dWeBABTkZB-65" style="edgeStyle=orthogonalEdgeStyle;rounded=0;orthogonalLoop=1;jettySize=auto;html=1;entryX=1;entryY=0.5;entryDx=0;entryDy=0;" edge="1" parent="1" source="p1mo3sN1p-dWeBABTkZB-43" target="p1mo3sN1p-dWeBABTkZB-59">
          <mxGeometry relative="1" as="geometry">
            <Array as="points">
              <mxPoint x="600" y="730" />
            </Array>
          </mxGeometry>
        </mxCell>
        <mxCell id="p1mo3sN1p-dWeBABTkZB-68" value="" style="rounded=0;whiteSpace=wrap;html=1;fillColor=none;dashed=1;dashPattern=8 8;" vertex="1" parent="1">
          <mxGeometry x="10" y="440" width="710" height="370" as="geometry" />
        </mxCell>
        <mxCell id="p1mo3sN1p-dWeBABTkZB-69" value="&lt;font style=&quot;font-size: 16px;&quot; face=&quot;Times New Roman&quot;&gt;Docker Container&lt;/font&gt;" style="text;html=1;align=left;verticalAlign=middle;resizable=0;points=[];autosize=1;" vertex="1" parent="1">
          <mxGeometry x="10" y="810" width="140" height="30" as="geometry" />
        </mxCell>
        <mxCell id="p1mo3sN1p-dWeBABTkZB-72" value="" style="group" vertex="1" connectable="0" parent="1">
          <mxGeometry x="741" y="440" width="110" height="370" as="geometry" />
        </mxCell>
        <mxCell id="p1mo3sN1p-dWeBABTkZB-70" value="" style="verticalLabelPosition=bottom;verticalAlign=top;html=1;shape=process;whiteSpace=wrap;rounded=1;size=0.08108108108108109;arcSize=6;rotation=90;fillColor=#dae8fc;strokeColor=#6c8ebf;" vertex="1" parent="p1mo3sN1p-dWeBABTkZB-72">
          <mxGeometry x="-130" y="130" width="370" height="110" as="geometry" />
        </mxCell>
        <mxCell id="p1mo3sN1p-dWeBABTkZB-71" value="&lt;font style=&quot;font-size: 24px;&quot; face=&quot;Times New Roman&quot;&gt;Memory Monitor&lt;/font&gt;" style="text;html=1;align=center;verticalAlign=middle;resizable=0;points=[];autosize=1;rotation=90;" vertex="1" parent="p1mo3sN1p-dWeBABTkZB-72">
          <mxGeometry x="-40" y="165" width="190" height="40" as="geometry" />
        </mxCell>
        <mxCell id="p1mo3sN1p-dWeBABTkZB-73" style="edgeStyle=orthogonalEdgeStyle;rounded=0;orthogonalLoop=1;jettySize=auto;html=1;entryX=1;entryY=0.5;entryDx=0;entryDy=0;" edge="1" parent="1" source="p1mo3sN1p-dWeBABTkZB-70" target="p1mo3sN1p-dWeBABTkZB-68">
          <mxGeometry relative="1" as="geometry" />
        </mxCell>
        <mxCell id="p1mo3sN1p-dWeBABTkZB-74" style="edgeStyle=orthogonalEdgeStyle;rounded=0;orthogonalLoop=1;jettySize=auto;html=1;entryX=0.5;entryY=1;entryDx=0;entryDy=0;" edge="1" parent="1" source="p1mo3sN1p-dWeBABTkZB-70" target="p1mo3sN1p-dWeBABTkZB-10">
          <mxGeometry relative="1" as="geometry" />
        </mxCell>
      </root>
    </mxGraphModel>
  </diagram>
</mxfile>
